<?xml version="1.0" encoding="UTF-8"?>
<!-- Generator: visioncortex VTracer -->
<svg id="svg" version="1.1" xmlns="http://www.w3.org/2000/svg" style="display: block;" viewBox="0 0 1877 1912"><path d="M0 0 C2.96591615 2.96591615 3.17452028 6.60982674 3.98583984 10.59716797 C4.17586452 11.50027081 4.36588921 12.40337364 4.56167221 13.33384323 C5.2018722 16.38518406 5.8312679 19.43865763 6.4609375 22.4921875 C6.91831263 24.68173692 7.37640993 26.87113558 7.83517456 29.06039429 C8.8297537 33.81319925 9.81973735 38.56693042 10.80627441 43.32141113 C12.39265987 50.96558745 13.98959419 58.60753426 15.58886719 66.24902344 C15.86416456 67.56454905 16.13945853 68.88007539 16.41474915 70.19560242 C16.83320261 72.19524794 17.25166618 74.19489134 17.67017746 76.19452477 C18.528473 80.29576195 19.38593638 84.39717214 20.24276352 88.49871635 C26.40619278 118.00207153 32.65461259 147.48723552 38.91637456 176.9698534 C40.39552047 183.93448496 41.87325974 190.89941476 43.35100484 197.86434364 C48.71480636 223.14410997 54.08667869 248.42214281 59.47605133 273.69647217 C60.20627463 277.12117872 60.93627458 280.5459328 61.66619873 283.97070312 C62.13390521 286.16504033 62.60161751 288.35937628 63.06933594 290.55371094 C63.295117 291.61299553 63.52089806 292.67228012 63.75352097 293.76366425 C65.06454299 299.91334271 66.37760213 306.06258179 67.69229126 312.21147728 C68.48305097 315.91164661 69.27222878 319.61215202 70.06098938 323.31274796 C70.42258703 325.00741183 70.78490584 326.701922 71.147995 328.39626694 C71.63663064 330.67671431 72.12282609 332.95766827 72.60839844 335.23876953 C73.01466461 337.13974899 73.01466461 337.13974899 73.42913818 339.07913208 C74 342 74 342 74 344 C74.74628662 344.03738281 75.49257324 344.07476562 76.26147461 344.11328125 C85.52587143 344.68943763 94.47970985 346.19183605 103.5625 348 C104.33766968 348.15305603 105.11283936 348.30611206 105.91149902 348.46380615 C156.95431491 358.59435233 206.06508831 374.42174362 253 397 C254.11084961 397.53351074 255.22169922 398.06702148 256.36621094 398.61669922 C273.03993786 406.67450449 289.16267702 415.40737446 305 425 C306.3624585 425.81766846 306.3624585 425.81766846 307.75244141 426.65185547 C326.6244854 437.99416174 344.54291472 450.59380648 362 464 C362.90008789 464.68956787 362.90008789 464.68956787 363.81835938 465.39306641 C375.47323951 474.35029299 386.64352021 483.85033525 397.51147461 493.74682617 C399.03127207 495.12288924 400.5588843 496.49046143 402.09985352 497.84277344 C409.56754648 504.42625339 416.58821305 511.43616874 423.61450195 518.48413086 C425.69044426 520.56545189 427.77170422 522.64134813 429.85351562 524.71679688 C431.19823752 526.06217938 432.54264929 527.40787194 433.88671875 528.75390625 C434.49730637 529.36246964 435.10789398 529.97103302 435.73698425 530.59803772 C440.02056263 534.90458592 444.03726822 539.39828377 448 544 C449.04556996 545.19125088 450.09225142 546.38152823 451.140625 547.5703125 C457.9182987 555.30239112 464.43890072 563.17787366 470.70898438 571.32666016 C471.95917637 572.94708677 473.22007278 574.55853807 474.484375 576.16796875 C481.29579895 584.89917302 487.71177007 593.88600812 494 603 C494.48194824 603.69689941 494.96389648 604.39379883 495.46044922 605.11181641 C509.31002752 625.23661846 521.67546068 646.36216901 533 668 C533.82516113 669.57442871 533.82516113 669.57442871 534.66699219 671.18066406 C566.79376962 732.91553756 586.39460759 799.87572154 596.59423828 868.5625 C596.73052139 869.47580078 596.8668045 870.38910156 597.00721741 871.33007812 C597.33886075 873.5532798 597.66977679 875.77658702 598 878 C598.61015331 878.12880177 599.22030663 878.25760353 599.84894943 878.39030838 C620.14953213 882.67577132 640.44985915 886.96244456 660.75 891.25 C661.54080932 891.41702439 662.33161863 891.58404878 663.14639187 891.75613451 C716.68474253 903.06391246 770.21751492 914.39776319 823.74435425 925.75990486 C826.36024467 926.31517715 828.97615369 926.87036158 831.59207153 927.42550468 C837.8610047 928.75594041 844.12975289 930.08723336 850.39807129 931.42056274 C861.40070545 933.75973097 872.40506251 936.08942441 883.41745186 938.38229275 C888.3124025 939.40160717 893.20644354 940.42525311 898.10047531 941.44896889 C900.4036254 941.92923746 902.70727142 942.4071345 905.01143265 942.88252831 C908.16037961 943.53223653 911.30761132 944.18971131 914.45458984 944.84887695 C915.38461193 945.03843523 916.31463402 945.22799351 917.27283859 945.42329597 C918.12135014 945.6025556 918.96986168 945.78181522 919.84408569 945.96650696 C920.57909491 946.11883443 921.31410412 946.2711619 922.07138634 946.42810535 C924 947 924 947 927 949 C913.00280613 952.67802998 898.86892311 955.65147923 884.7109375 958.63671875 C882.0969251 959.19015301 879.48296352 959.74382233 876.86906433 960.29779053 C871.28583671 961.48058503 865.70217245 962.6612984 860.11819458 963.84054565 C852.02490555 965.54973937 843.9323372 967.26232545 835.83994782 968.97577298 C822.89973498 971.71562661 809.95904872 974.45323644 797.01806641 977.18945312 C780.06723494 980.77357416 763.11738806 984.36233235 746.16796875 987.953125 C744.85688287 988.2308744 743.54579685 988.50862314 742.23471069 988.78637123 C733.34393034 990.66987573 724.45320309 992.55363081 715.5625 994.4375 C714.33270668 994.69808071 713.10291336 994.95866142 711.83585358 995.22713852 C701.18805252 997.483312 690.5402528 999.73949176 679.89257812 1001.9962616 C669.94081927 1004.10551417 659.98897746 1006.21436914 650.03662109 1008.32080078 C643.08891981 1009.79129808 636.1415614 1011.263397 629.19482136 1012.73842907 C625.94756188 1013.42789783 622.70007407 1014.11623182 619.45217896 1014.80270386 C616.09778972 1015.51179709 612.74410888 1016.22413962 609.390625 1016.9375 C608.44193039 1017.13718887 607.49323578 1017.33687775 606.51579285 1017.5426178 C605.24775566 1017.81349464 605.24775566 1017.81349464 603.95410156 1018.08984375 C603.23079651 1018.24316162 602.50749146 1018.39647949 601.76226807 1018.55444336 C599.90966106 1018.95586527 599.90966106 1018.95586527 598 1020 C597.35538151 1022.92006193 597.35538151 1022.92006193 596.95703125 1026.5234375 C596.77274366 1027.93331587 596.58807369 1029.3431443 596.40307617 1030.75292969 C596.30755463 1031.50457397 596.21203308 1032.25621826 596.11361694 1033.03063965 C587.99627379 1096.22860267 569.60602218 1157.58901145 542 1215 C541.44473633 1216.15967285 540.88947266 1217.3193457 540.31738281 1218.51416016 C531.46341775 1236.94033229 521.73102423 1254.59227284 511 1272 C510.44683105 1272.90347168 509.89366211 1273.80694336 509.32373047 1274.73779297 C500.35306616 1289.35572785 490.5354413 1303.31802231 480.328125 1317.09375 C478.90472409 1318.74953293 478.90472409 1318.74953293 479 1320 C480.98 1320.33 482.96 1320.66 485 1321 C485.309375 1322.423125 485.309375 1322.423125 485.625 1323.875 C486.70833333 1327.29166667 486.70833333 1327.29166667 490.125 1328.375 C491.07375 1328.58125 492.0225 1328.7875 493 1329 C493 1330.65 493 1332.3 493 1334 C494.98 1334 496.96 1334 499 1334 C501 1339.75 501 1339.75 501 1342 C502.65 1341.34 504.3 1340.68 506 1340 C506.22042969 1340.84884766 506.22042969 1340.84884766 506.4453125 1341.71484375 C507.13619834 1343.97411985 507.81748922 1345.95118095 509 1348 C512.07797583 1349.14031566 512.07797583 1349.14031566 515 1349 C515 1350.98 515 1352.96 515 1355 C516.98 1354.67 518.96 1354.34 521 1354 C521.33 1356.64 521.66 1359.28 522 1362 C523.98 1362 525.96 1362 528 1362 C528.226875 1362.94875 528.45375 1363.8975 528.6875 1364.875 C529.65376175 1368.1828644 529.65376175 1368.1828644 532.4375 1369.0625 C533.283125 1369.371875 534.12875 1369.68125 535 1370 C536 1371.66666667 537 1373.33333333 538 1375 C538.845625 1375.33 539.69125 1375.66 540.5625 1376 C541.366875 1376.33 542.17125 1376.66 543 1377 C543.33 1377.845625 543.66 1378.69125 544 1379.5625 C544.33 1380.366875 544.66 1381.17125 545 1382 C547.54775306 1382.89386164 547.54775306 1382.89386164 550 1383 C550.37125 1384.3303125 550.37125 1384.3303125 550.75 1385.6875 C552.03934768 1389.10427135 553.59980129 1391.2797748 556 1394 C554.73046875 1395.49739583 553.4609375 1396.99479167 552.19140625 1398.4921875 C550.9121848 1400.00594079 550.9121848 1400.00594079 550 1402 C550.56439285 1401.91230347 551.12878571 1401.82460693 551.71028137 1401.73425293 C557.63079585 1400.81598514 563.55301637 1399.90938482 569.47631836 1399.00927734 C571.68119588 1398.6726967 573.88563491 1398.33322957 576.08959961 1397.99072266 C579.27344203 1397.49646696 582.4587623 1397.01291248 585.64453125 1396.53125 C586.61582474 1396.37813354 587.58711823 1396.22501709 588.58784485 1396.06726074 C605.7794726 1393.50454277 605.7794726 1393.50454277 611.0625 1397.0625 C613.40950235 1400.6208584 614.7084667 1402.69988379 615 1407 C613.11186534 1410.11818982 610.62782448 1412.49636382 608 1415 C606.8320562 1416.16538813 605.66533865 1417.33200682 604.5 1418.5 C603.91863281 1419.07105469 603.33726563 1419.64210938 602.73828125 1420.23046875 C600.97042684 1422.03010481 599.32745458 1423.89601912 597.6875 1425.8125 C594.08659412 1430.00130888 590.18746251 1433.84825085 586.234375 1437.703125 C584.28200692 1439.71010478 582.6126187 1441.7172021 581 1444 C584.16070498 1451.19938355 591.15462952 1456.19538475 597 1461.21875 C599.78885533 1463.70257428 602.37686983 1466.36711437 604.99609375 1469.02734375 C607.58246151 1471.57337829 610.3153528 1473.92021557 613.06640625 1476.28515625 C614.95494597 1477.96004299 616.73155648 1479.69947587 618.5 1481.5 C620.75797943 1483.79326036 623.05996504 1485.96428028 625.5 1488.0625 C633.80011111 1495.22783029 641.86128711 1502.75741719 649.5625 1510.5625 C652.59083517 1513.61049968 655.49066393 1516.50447213 659 1519 C660.19109375 1518.93619141 660.19109375 1518.93619141 661.40625 1518.87109375 C664.99882744 1519.04964052 665.92260435 1520.44541135 668.3125 1523.0625 C671.15200414 1526.07152677 673.97580577 1528.94054123 677.125 1531.625 C679.77945846 1533.92766276 682.42879405 1536.22933823 685 1538.625 C685.5775 1539.15351562 686.155 1539.68203125 686.75 1540.2265625 C688 1542 688 1542 688.4921875 1544.26171875 C687.76391194 1548.31347402 685.57949838 1550.95202486 683.125 1554.1875 C682.66480469 1554.81591797 682.20460938 1555.44433594 681.73046875 1556.09179688 C679.9291733 1558.53268274 678.14757951 1560.85242049 676 1563 C670.10991873 1562.87348274 667.48562121 1561.21246278 663.375 1557.125 C662.34780559 1556.12217183 661.31775249 1555.12226511 660.28515625 1554.125 C659.75422363 1553.609375 659.22329102 1553.09375 658.67626953 1552.5625 C656.96144109 1550.96405811 655.19214514 1549.47587209 653.37109375 1548 C652.77699707 1547.51772949 652.18290039 1547.03545898 651.57080078 1546.53857422 C650.42140869 1545.61452809 649.26504863 1544.69906566 648.10107422 1543.79345703 C645.63544727 1541.78913602 644.13912887 1540.42431157 643.13671875 1537.3671875 C643.0335285 1535.58052209 643 1533.78964285 643 1532 C641.67854414 1530.49901238 641.67854414 1530.49901238 639.8125 1529.0625 C635.97785882 1525.85226057 632.28444146 1522.5312079 628.625 1519.125 C625.70089465 1516.40458693 622.77557356 1513.68908044 619.78974915 1511.03623962 C613.91943035 1505.82011022 608.31584902 1500.41209063 602.81640625 1494.80859375 C601.13113936 1493.10584263 599.44558449 1491.40337651 597.75976562 1489.70117188 C595.14070518 1487.05094097 592.52408954 1484.39841722 589.91235352 1481.7409668 C587.36616627 1479.15269381 584.81082564 1476.57375888 582.25390625 1473.99609375 C581.07738243 1472.79163857 581.07738243 1472.79163857 579.87709045 1471.56285095 C579.14880539 1470.8311116 578.42052032 1470.09937225 577.67016602 1469.34545898 C576.71280296 1468.37357887 576.71280296 1468.37357887 575.73609924 1467.38206482 C573.9786579 1465.68858964 573.9786579 1465.68858964 571 1466 C568.79857668 1468.4390706 568.79857668 1468.4390706 567 1471 C562.25 1470.25 562.25 1470.25 560 1468 C558.865625 1467.71125 557.73125 1467.4225 556.5625 1467.125 C552.8580255 1465.95516595 551.86498941 1465.29115778 550 1462 C551.13225208 1459.45243283 552.27311263 1457.68672374 554.125 1455.5625 C556.31285223 1452.57243529 556.53043372 1451.61123564 556 1448 C554.15988611 1445.51733771 554.15988611 1445.51733771 551.6875 1443.3125 C550.88699219 1442.54550781 550.08648438 1441.77851562 549.26171875 1440.98828125 C546.13877471 1437.97942947 546.13877471 1437.97942947 542.125 1437.0625 C539.08183299 1438.40507368 537.23319168 1440.58070901 535 1443 C532 1442 532 1442 530.1875 1439.6875 C527.67769655 1436.60402719 525.56161574 1434.78080787 522 1433 C518.67221575 1433.60738122 518.67221575 1433.60738122 516 1435 C515.46375 1434.38125 514.9275 1433.7625 514.375 1433.125 C511.68896977 1430.7217098 509.44585438 1429.93977847 506 1429 C505.67 1427.02 505.34 1425.04 505 1423 C503.35 1423 501.7 1423 500 1423 C499.34 1421.02 498.68 1419.04 498 1417 C496.02 1416.67 494.04 1416.34 492 1416 C491.67 1414.02 491.34 1412.04 491 1410 C490.071875 1409.938125 489.14375 1409.87625 488.1875 1409.8125 C485 1409 485 1409 483.125 1406.5625 C482 1404 482 1404 482 1402 C480.35 1402 478.7 1402 477 1402 C476.34 1400.68 475.68 1399.36 475 1398 C472.27657525 1397.41670182 472.27657525 1397.41670182 469 1398 C466.48911547 1400.01280145 464.53257726 1402.45350712 462.5 1404.9375 C456.95664516 1411.67247863 456.95664516 1411.67247863 452.828125 1413.0859375 C447.93585582 1412.93727739 445.52202306 1410.15937147 442 1407 C441.08605469 1406.21367188 440.17210937 1405.42734375 439.23046875 1404.6171875 C438.30878906 1403.77414062 437.38710937 1402.93109375 436.4375 1402.0625 C435.56996094 1401.26972656 434.70242188 1400.47695312 433.80859375 1399.66015625 C432 1397 432 1397 431.984375 1393.48046875 C433.06442233 1389.77922961 434.17253276 1388.0124147 436.8125 1385.25 C437.84310547 1384.14398437 437.84310547 1384.14398437 438.89453125 1383.015625 C440.83608178 1381.15692356 442.810913 1379.55449773 445 1378 C444.690625 1376.63875 444.690625 1376.63875 444.375 1375.25 C443.9872755 1371.88972103 444.19588033 1370.75924185 446 1368 C445.01 1367.01 444.02 1366.02 443 1365 C439.82716634 1366.40120246 437.70831007 1368.05145758 435.27636719 1370.51245117 C434.56172302 1371.23047409 433.84707886 1371.94849701 433.11077881 1372.6882782 C432.34719055 1373.46532608 431.58360229 1374.24237396 430.796875 1375.04296875 C430.00025452 1375.8447908 429.20363403 1376.64661285 428.38287354 1377.47273254 C425.8337925 1380.03962418 423.2914714 1382.61307558 420.75 1385.1875 C418.22200181 1387.74324392 415.69252167 1390.2974739 413.15997314 1392.84870911 C411.58547555 1394.4353202 410.01365686 1396.02459594 408.44500732 1397.61698914 C403.80396889 1402.29970527 399.01610178 1406.72278837 394 1411 C392.90553368 1411.94969594 391.81166116 1412.90007729 390.71875 1413.8515625 C377.00880397 1425.69254639 363.02399289 1436.9530145 348.23046875 1447.41796875 C346.06255009 1448.95563435 343.90520119 1450.50707651 341.75 1452.0625 C331.43164967 1459.47776202 320.8384033 1466.37041829 310 1473 C309.17467773 1473.50611816 308.34935547 1474.01223633 307.49902344 1474.53369141 C239.7753361 1515.84800702 165.23294638 1542.98548433 87 1556 C85.235354 1556.29583984 85.235354 1556.29583984 83.43505859 1556.59765625 C82.29504395 1556.78199219 81.1550293 1556.96632813 79.98046875 1557.15625 C78.46876099 1557.40084961 78.46876099 1557.40084961 76.92651367 1557.65039062 C73.92142576 1558.00938669 71.02340589 1558.02345084 68 1558 C67.88663142 1558.72091607 67.77326284 1559.44183214 67.65645885 1560.18459415 C66.44499999 1567.6908187 64.96860527 1575.10413539 63.32739258 1582.52709961 C62.93250704 1584.33043495 62.93250704 1584.33043495 62.52964401 1586.1702013 C61.80643811 1589.46999769 61.08055633 1592.76918365 60.35347867 1596.06812763 C59.56841455 1599.63333626 58.78686426 1603.19931531 58.00486755 1606.76519775 C56.65281317 1612.9282429 55.29854566 1619.09079831 53.94274902 1625.25302124 C51.97475497 1634.19774699 50.01021877 1643.14322954 48.0464294 1652.08887923 C43.92988143 1670.84027931 39.80769021 1689.59043697 35.68436158 1708.34034699 C33.84960735 1716.68358696 32.01542204 1725.02695197 30.18132603 1733.37033665 C29.29100485 1737.42043391 28.40065208 1741.47052423 27.51029968 1745.52061462 C27.33568472 1746.31491408 27.16106976 1747.10921354 26.98116344 1747.92758268 C26.454892 1750.32151385 25.92861845 1752.71544455 25.40234375 1755.109375 C25.14270226 1756.29043977 25.14270226 1756.29043977 24.87781549 1757.49536443 C23.66949126 1762.99179419 22.4611178 1768.48821313 21.25268555 1773.98461914 C21.08451297 1774.74953332 20.91634039 1775.5144475 20.74307168 1776.3025409 C18.47007036 1786.64081133 16.1958956 1796.978823 13.92082655 1807.31663859 C12.55632945 1813.51702406 11.19212889 1819.71747476 9.828125 1825.91796875 C9.68324701 1826.57654837 9.53836902 1827.235128 9.38910079 1827.91366458 C3.22516758 1855.93499144 -2.89586005 1883.96559122 -9 1912 C-9.66 1912 -10.32 1912 -11 1912 C-24.02525826 1853.70523227 -36.82386292 1795.36059318 -49.62974769 1737.01735032 C-54.31800812 1715.6578127 -59.00988992 1694.29907304 -63.7041409 1672.94085121 C-64.54811308 1669.10083438 -65.39202871 1665.26080512 -66.23594666 1661.42077637 C-70.13605274 1643.67437761 -70.13605274 1643.67437761 -74.03671265 1625.92810059 C-75.39714931 1619.73919202 -76.75732528 1613.55022622 -78.11718744 1607.36119139 C-78.80952016 1604.21027387 -79.50201502 1601.05939215 -80.19476128 1597.90856552 C-81.60742936 1591.48319216 -83.01781362 1585.05733093 -84.4235611 1578.63043976 C-84.95060026 1576.22542381 -85.48120184 1573.82122334 -86.01263428 1571.41717529 C-86.28931946 1570.15335022 -86.56600464 1568.88952515 -86.85107422 1567.58740234 C-87.19270096 1566.03706802 -87.19270096 1566.03706802 -87.54122925 1564.45541382 C-88 1562 -88 1562 -88 1559 C-88.70044434 1558.91548584 -89.40088867 1558.83097168 -90.12255859 1558.74389648 C-152.47885615 1551.06130278 -212.98229267 1533.32842584 -270 1507 C-270.969375 1506.55446777 -271.93875 1506.10893555 -272.9375 1505.64990234 C-287.28645915 1499.02161819 -301.26098593 1491.81369392 -315 1484 C-315.79873535 1483.54608887 -316.5974707 1483.09217773 -317.42041016 1482.62451172 C-345.86429398 1466.31258582 -373.0245734 1447.33678493 -398.26318359 1426.43261719 C-400.76234405 1424.37117868 -403.29045371 1422.34583293 -405.8125 1420.3125 C-410.50140904 1416.47547984 -414.98448782 1412.44273746 -419.44140625 1408.33984375 C-421.63811903 1406.33094152 -423.86549369 1404.37485887 -426.125 1402.4375 C-429.86664238 1399.19219794 -433.31884766 1395.699262 -436.79296875 1392.171875 C-438.73632275 1390.25947708 -440.7227379 1388.49795836 -442.8125 1386.75 C-447.67801201 1382.58512172 -451.86998768 1377.81150756 -456.171875 1373.08203125 C-458.32567198 1370.71840267 -460.52772331 1368.42596365 -462.8125 1366.1875 C-466.41932481 1362.6324478 -469.70493903 1358.84319966 -473 1355 C-473.90715539 1353.9566862 -474.81474081 1352.91374621 -475.72265625 1351.87109375 C-482.20322064 1344.40407892 -488.47214873 1336.8078796 -494.49121094 1328.96386719 C-495.52947884 1327.61243886 -496.5720503 1326.26430948 -497.61816406 1324.91894531 C-514.2984816 1303.43454321 -529.49783144 1280.61206527 -543 1257 C-543.63591064 1255.88939209 -543.63591064 1255.88939209 -544.28466797 1254.75634766 C-547.25581371 1249.53947582 -550.14087313 1244.27890273 -553 1239 C-553.42603516 1238.22172852 -553.85207031 1237.44345703 -554.29101562 1236.64160156 C-586.38829381 1177.84414307 -606.92786463 1112.48543969 -617.4375 1046.5 C-617.56932678 1045.67936066 -617.70115356 1044.85872131 -617.8369751 1044.01321411 C-618.2107062 1041.66624539 -618.57430665 1039.31796911 -618.93359375 1036.96875 C-619.04258499 1036.28046616 -619.15157623 1035.59218231 -619.26387024 1034.88304138 C-619.96162903 1030.18858691 -620.03458676 1025.7283808 -620 1021 C-620.62914212 1020.88185849 -621.25828424 1020.76371698 -621.90649128 1020.64199543 C-639.3770658 1017.34969763 -656.78068146 1013.7857133 -674.16825056 1010.08225369 C-677.80374902 1009.30854162 -681.43989544 1008.53788513 -685.07595825 1007.76683044 C-692.15845518 1006.26446514 -699.24041257 1004.75957282 -706.32214713 1003.25361842 C-719.70362735 1000.40803037 -733.085912 997.56622677 -746.46814233 994.72416878 C-750.82016138 993.79989877 -755.17215149 992.87549297 -759.52408028 991.95079803 C-783.81428826 986.78977273 -808.10946884 981.65287026 -832.40948766 976.53823978 C-838.62493647 975.22994355 -844.84010331 973.92031533 -851.05506897 972.60972595 C-851.91950805 972.42744035 -852.78394714 972.24515474 -853.67458135 972.05734533 C-857.13100998 971.32844827 -860.58742767 970.59949946 -864.04381096 969.87038743 C-874.16963048 967.73439533 -884.29633529 965.60272225 -894.42455935 963.47815996 C-900.76334073 962.14807466 -907.1009667 960.81257867 -913.43770814 959.47280878 C-917.09790193 958.69913799 -920.75859245 957.92804633 -924.42071915 957.16357231 C-928.38483201 956.33602591 -932.34642073 955.49698335 -936.30786133 954.65673828 C-937.47574534 954.41490657 -938.64362936 954.17307486 -939.8469038 953.92391491 C-940.90163041 953.69822984 -941.95635702 953.47254477 -943.04304504 953.24002075 C-943.95860578 953.04744753 -944.87416651 952.85487431 -945.8174715 952.65646553 C-948 952 -948 952 -950 950 C-942.01185555 947.95057933 -934.00434111 946.08940946 -925.93408203 944.39404297 C-924.20772081 944.02855976 -924.20772081 944.02855976 -922.44648361 943.65569305 C-919.29596999 942.9891509 -916.1450513 942.32456581 -912.99394369 941.6608386 C-909.59954828 940.94534338 -906.2057057 940.22723477 -902.8117981 939.50942993 C-896.96894065 938.27402367 -891.12575855 937.04016341 -885.28234863 935.80737305 C-876.04679596 933.85890585 -866.81192336 931.90722765 -857.57714844 929.95507812 C-854.43921377 929.29178642 -851.30127346 928.62852146 -848.16333008 927.965271 C-847.38329636 927.80039838 -846.60326264 927.63552576 -845.79959154 927.465657 C-840.23520549 926.289584 -834.67072654 925.11395122 -829.10620117 923.9385376 C-800.96866007 917.99488909 -772.83360065 912.03957664 -744.69976807 906.07839966 C-738.5277612 904.77065162 -732.35565197 903.46338737 -726.18351555 902.15625095 C-704.84851113 897.63772438 -683.51412934 893.11650846 -662.1875 888.55859375 C-660.66534491 888.23340546 -659.14318917 887.90822023 -657.62103271 887.58303833 C-651.02951688 886.17455697 -644.43857158 884.76350266 -637.84863281 883.34765625 C-635.69597103 882.88668378 -633.54330235 882.42574351 -631.390625 881.96484375 C-630.44195557 881.75999863 -629.49328613 881.5551535 -628.51586914 881.34410095 C-627.67048584 881.16343582 -626.82510254 880.98277069 -625.95410156 880.79663086 C-625.23079651 880.64109238 -624.50749146 880.48555389 -623.76226807 880.32530212 C-622 880 -622 880 -620 880 C-620.02505615 878.86256348 -620.0501123 877.72512695 -620.07592773 876.55322266 C-620.07186846 871.99746346 -619.50345972 867.64015806 -618.78515625 863.1484375 C-618.65443726 862.3085025 -618.52371826 861.4685675 -618.38903809 860.60317993 C-617.95659166 857.85879148 -617.51148316 855.11672953 -617.0625 852.375 C-616.83166214 850.95622559 -616.83166214 850.95622559 -616.59616089 849.50878906 C-605.09802641 779.46861497 -581.35563719 710.62745828 -546 649 C-545.57412598 648.25298828 -545.14825195 647.50597656 -544.70947266 646.73632812 C-534.0958951 628.18222217 -522.46531035 610.35922535 -510 593 C-509.41959961 592.18998535 -508.83919922 591.3799707 -508.24121094 590.54541016 C-499.92841943 578.98594213 -491.1868849 567.87521213 -482 557 C-481.48727539 556.38817871 -480.97455078 555.77635742 -480.44628906 555.14599609 C-468.3864602 540.75972659 -455.4291819 527.25667017 -442.13867188 514.00830078 C-440.10167579 511.976738 -438.07018049 509.93978164 -436.0390625 507.90234375 C-434.71646683 506.58040793 -433.39356151 505.25878183 -432.0703125 503.9375 C-431.47743439 503.34259766 -430.88455627 502.74769531 -430.27371216 502.13476562 C-426.01048095 497.89491157 -421.55841023 493.91898367 -417 490 C-415.89411473 489.03823914 -414.78857213 488.07608391 -413.68359375 487.11328125 C-388.41566156 465.25910141 -361.51393104 445.41890639 -333 428 C-331.74461426 427.22922119 -331.74461426 427.22922119 -330.46386719 426.44287109 C-315.35872117 417.20879255 -299.81951193 408.9389267 -284 401 C-282.89495117 400.44280273 -281.78990234 399.88560547 -280.65136719 399.31152344 C-220.48826334 369.13250551 -140.46518753 338.55481473 -72 341 C-71.82758065 339.91472141 -71.82758065 339.91472141 -71.65167809 338.80751801 C-70.44803146 331.39095761 -69.02771885 324.04540409 -67.46337891 316.69726562 C-67.21487529 315.51980082 -66.96637167 314.34233601 -66.71033764 313.12919044 C-66.02836624 309.90042925 -65.34411389 306.67216183 -64.65883279 303.44410181 C-63.91959847 299.95912946 -63.18334344 296.47352756 -62.44670105 292.98800659 C-61.00961196 286.19053992 -59.56977639 279.39365784 -58.12901241 272.59696925 C-56.44686063 264.66096179 -54.76765911 256.72433091 -53.08851302 248.78768706 C-48.90189857 229.00014863 -44.70899179 209.2139451 -40.51469517 189.42803383 C-39.83828004 186.23709887 -39.16191892 183.04615246 -38.48555684 179.85520625 C-32.93344963 153.66156588 -27.37992852 127.46822493 -21.82008886 101.27622461 C-21.40469845 99.31933948 -20.98933076 97.36244952 -20.57396317 95.40555954 C-19.24352317 89.13767434 -17.91282835 82.86984344 -16.58166504 76.60211182 C-13.97711287 64.33587167 -11.37994374 52.06812044 -8.79443359 39.79785156 C-8.27864272 37.35193418 -7.76282996 34.90602141 -7.24699402 32.46011353 C-6.27819348 27.8662589 -5.31165009 23.27193727 -4.34638977 18.67733765 C-3.91550221 16.63334352 -3.48453279 14.58936666 -3.0534668 12.54541016 C-2.85874723 11.61538807 -2.66402767 10.68536598 -2.46340752 9.72716141 C-2.28407236 8.87864986 -2.10473721 8.03013832 -1.91996765 7.15591431 C-1.76541957 6.42090509 -1.61087149 5.68589588 -1.45164013 4.92861366 C-1 3 -1 3 0 0 Z M-266 449 C-266.90024902 449.44811035 -267.80049805 449.8962207 -268.72802734 450.35791016 C-288.92891871 460.49026582 -308.44591641 472.0938951 -327 485 C-327.6796582 485.47002441 -328.35931641 485.94004883 -329.05957031 486.42431641 C-359.65703436 507.62467737 -387.71166063 531.68319227 -414.0625 557.9375 C-414.94301025 558.8133374 -415.82352051 559.6891748 -416.73071289 560.59155273 C-421.15798717 565.02982856 -425.44265146 569.53023483 -429.52709961 574.28637695 C-431.384061 576.44682979 -433.31719593 578.53239717 -435.25 580.625 C-439.79602866 585.6633228 -443.96311753 590.94466668 -448.1171875 596.3046875 C-450.03118606 598.77187992 -451.97267203 601.21225895 -453.9453125 603.6328125 C-461.40743381 612.79525675 -468.32308312 622.25174761 -475 632 C-475.43554199 632.63405762 -475.87108398 633.26811523 -476.31982422 633.92138672 C-483.25266017 644.0527629 -489.72278092 654.4516834 -496 665 C-496.46631836 665.78020508 -496.93263672 666.56041016 -497.41308594 667.36425781 C-517.643802 701.39684881 -533.41979016 737.49704581 -546 775 C-546.34869141 776.0327002 -546.69738281 777.06540039 -547.05664062 778.12939453 C-556.9163349 807.68491212 -563.43752266 838.21353086 -568 869 C-557.36926328 867.38790296 -546.88628604 865.14234761 -536.375 862.90234375 C-534.49605609 862.50382721 -532.61706767 862.10552051 -530.73803711 861.70741272 C-526.82453386 860.87772246 -522.91139058 860.04636304 -518.99853516 859.21362305 C-513.98439447 858.14652128 -508.96963982 857.08234016 -503.95465088 856.01923275 C-499.15705812 855.00208782 -494.35976593 853.98352884 -489.5625 852.96484375 C-488.19396881 852.67441854 -488.19396881 852.67441854 -486.79779053 852.37812614 C-484.22049582 851.83090777 -481.6434167 851.28268614 -479.06640625 850.73413086 C-477.92403755 850.49176697 -477.92403755 850.49176697 -476.7585907 850.24450684 C-473.49080769 849.5478954 -470.23816511 848.82285484 -467 848 C-467.54527344 848.79019531 -468.09054687 849.58039063 -468.65234375 850.39453125 C-496.23786138 891.27568789 -502.75973207 942.83597295 -493.47998047 990.68115234 C-489.29492209 1011.40448433 -481.84790444 1032.33934885 -469.41409302 1049.64082336 C-468.7366035 1050.58485755 -468.7366035 1050.58485755 -468.04542732 1051.54796314 C-467.70043631 1052.02713531 -467.35544529 1052.50630747 -467 1053 C-468.23583832 1052.73468979 -469.47167664 1052.46937958 -470.7449646 1052.19602966 C-482.36858684 1049.70159208 -493.99371349 1047.21427923 -505.62036705 1044.73400784 C-511.59827669 1043.45852088 -517.57562 1042.18049372 -523.55175781 1040.89672852 C-529.31465815 1039.65886646 -535.07892877 1038.42758931 -540.84422684 1037.2009449 C-543.04804647 1036.73082814 -545.25135418 1036.25830518 -547.45414352 1035.78338432 C-550.52981132 1035.12069295 -553.60715709 1034.46643445 -556.68505859 1033.81420898 C-557.60359116 1033.6142482 -558.52212372 1033.41428741 -559.4684906 1033.20826721 C-560.30424118 1033.03294464 -561.13999176 1032.85762207 -562.00106812 1032.67698669 C-562.72928457 1032.52120368 -563.45750103 1032.36542067 -564.20778465 1032.20491695 C-566.10135725 1031.82321067 -566.10135725 1031.82321067 -568 1033 C-562.9872138 1065.64697976 -555.54848743 1097.68459608 -545 1129 C-544.42644775 1130.71823975 -544.42644775 1130.71823975 -543.84130859 1132.47119141 C-530.84125008 1171.09267194 -513.33283901 1208.28196884 -492 1243 C-491.42008301 1243.94552734 -490.84016602 1244.89105469 -490.24267578 1245.86523438 C-482.35975125 1258.64318321 -473.99874212 1270.98356923 -465 1283 C-464.45456543 1283.73089844 -463.90913086 1284.46179687 -463.34716797 1285.21484375 C-456.98892839 1293.70991465 -450.45248529 1301.99935685 -443.52734375 1310.0390625 C-441.22767272 1312.73326751 -439.01533638 1315.47667481 -436.8125 1318.25 C-426.71003417 1330.607322 -415.25852337 1341.83167929 -404 1353.125 C-403.5115863 1353.61609253 -403.02317261 1354.10718506 -402.5199585 1354.61315918 C-396.85541457 1360.30130636 -391.11009167 1365.79456571 -385 1371 C-383.80831287 1372.04507272 -382.61818755 1373.09192923 -381.4296875 1374.140625 C-373.16481019 1381.38663946 -364.73174538 1388.32568553 -356 1395 C-355.2668457 1395.56444824 -354.53369141 1396.12889648 -353.77832031 1396.71044922 C-341.20895992 1406.3698028 -328.33060893 1415.42253833 -315 1424 C-313.72237793 1424.82346924 -313.72237793 1424.82346924 -312.41894531 1425.66357422 C-298.6536278 1434.48353517 -284.48930269 1442.43573169 -270 1450 C-268.96746094 1450.54156738 -267.93492187 1451.08313477 -266.87109375 1451.64111328 C-231.77896538 1471.78899487 -231.77896538 1471.78899487 -194 1482 C-192.80933518 1478.86274297 -191.65210264 1475.71410123 -190.5 1472.5625 C-190.16613281 1471.68400391 -189.83226562 1470.80550781 -189.48828125 1469.90039062 C-187.45562097 1464.2794627 -186.0272409 1459.00311775 -187 1453 C-188.81378992 1449.65247442 -188.81378992 1449.65247442 -191 1447 C-194.31897763 1437.04306711 -191.31496221 1425.60479155 -189.22900391 1415.61499023 C-188.74911346 1413.30823855 -188.29321465 1410.99764065 -187.83984375 1408.68554688 C-183.82293954 1388.64094487 -183.82293954 1388.64094487 -178.2734375 1383.44921875 C-177.31695313 1382.86785156 -176.36046875 1382.28648437 -175.375 1381.6875 C-171.29721437 1379.16758153 -169.28800006 1377.69827296 -168 1373 C-167.40537194 1366.95461471 -168.35152261 1361.66670034 -169.75 1355.8125 C-169.90678223 1355.13533936 -170.06356445 1354.45817871 -170.22509766 1353.76049805 C-171.39532685 1349.18560873 -173.12152012 1345.73409103 -176 1342 C-178.52620476 1340.73689762 -180.12068948 1341.00375995 -182.9375 1341.125 C-189.04827682 1341.16499199 -194.27512359 1340.10550166 -200 1338 C-200.74507812 1337.72929688 -201.49015625 1337.45859375 -202.2578125 1337.1796875 C-208.05752187 1334.37906738 -210.46883102 1329.55410904 -212.58203125 1323.69140625 C-215.38817547 1314.95029582 -216.95578901 1305.85445006 -218.67803955 1296.85276794 C-219.84879552 1290.73749616 -221.07360465 1284.63384683 -222.30859375 1278.53125 C-226.97431136 1255.43185344 -226.97431136 1255.43185344 -229 1245 C-229.22671387 1243.85072021 -229.45342773 1242.70144043 -229.68701172 1241.51733398 C-231.11525543 1233.75764065 -231.44001618 1226.0658635 -231.625 1218.1875 C-231.66109398 1216.79882712 -231.69722758 1215.41015526 -231.73339844 1214.02148438 C-231.82259885 1210.41180991 -231.89528603 1206.80201852 -231.96032715 1203.1918335 C-231.98677615 1201.73058703 -232.01452687 1200.26936354 -232.0435791 1198.8081665 C-232.128138 1194.54532632 -232.19340192 1190.28297097 -232.23016357 1186.0194397 C-232.24953881 1184.04695083 -232.28207986 1182.0746052 -232.31494141 1180.10229492 C-232.36321973 1166.6818154 -232.36321973 1166.6818154 -229 1162 C-226.17011563 1159.40353786 -223.09678348 1157.32937814 -219.875 1155.25 C-218.21992312 1154.16106652 -216.57113408 1153.06249813 -214.9296875 1151.953125 C-214.19991699 1151.48036133 -213.47014648 1151.00759766 -212.71826172 1150.52050781 C-210.6724677 1148.71016323 -210.20455957 1147.70834223 -210 1145 C-211.65747467 1142.0146436 -211.65747467 1142.0146436 -214 1139 C-214.69996094 1138.01644531 -215.39992188 1137.03289063 -216.12109375 1136.01953125 C-216.88550781 1134.96121094 -217.64992188 1133.90289063 -218.4375 1132.8125 C-229.80323712 1116.98027275 -240.57745408 1100.73250878 -251.32910156 1084.47998047 C-253.50517408 1081.19063241 -255.68489472 1077.90372133 -257.86618042 1074.61782837 C-258.73205813 1073.31190232 -259.5966292 1072.00510876 -260.45974731 1070.69735718 C-266.04095826 1062.24191612 -271.81896043 1054.03312002 -278 1046 C-278.92655396 1044.79053711 -278.92655396 1044.79053711 -279.87182617 1043.55664062 C-281.573578 1041.34419737 -283.28421866 1039.13907635 -285 1036.9375 C-285.90480103 1035.77565186 -285.90480103 1035.77565186 -286.82788086 1034.59033203 C-291.4643356 1028.65284082 -296.20349286 1022.80883528 -301 1017 C-307.69683828 1008.82391349 -314.34337062 1000.61346865 -320.84204102 992.27880859 C-323.73864468 988.57403218 -326.69372461 984.92397633 -329.68334961 981.29394531 C-337.49397389 971.79431596 -344.82055807 961.98310707 -352 952 C-352.58426758 951.19014648 -353.16853516 950.38029297 -353.77050781 949.54589844 C-373.11847375 922.63395686 -391.36210257 893.95459343 -401 862 C-401.23428711 861.25008789 -401.46857422 860.50017578 -401.70996094 859.72753906 C-419.30920374 801.12441406 -390.03169327 728.1011784 -368.4375 674 C-368.0882547 673.12180603 -367.7390094 672.24361206 -367.37918091 671.33880615 C-366.38466025 668.84747636 -365.38026826 666.3604253 -364.37109375 663.875 C-364.07467987 663.13500763 -363.77826599 662.39501526 -363.47286987 661.63259888 C-360.36155458 654.06206151 -360.36155458 654.06206151 -358 652 C-354.3125 651.75 -354.3125 651.75 -351 652 C-344.46191131 640.09904955 -340.01726939 627.60807216 -335.5625 614.8125 C-335.18804749 613.74453186 -334.81359497 612.67656372 -334.42779541 611.57623291 C-327.90459363 592.96107242 -321.59076266 574.37754996 -317.15234375 555.13671875 C-316.91937592 554.1271109 -316.91937592 554.1271109 -316.68170166 553.09710693 C-315.93725679 549.85013477 -315.21411416 546.60132771 -314.51904297 543.34326172 C-310.84612607 526.60495937 -304.72137924 511.66397873 -290.0546875 502.07421875 C-276.45263482 494.07117325 -260.24119343 491.37394517 -245 488 C-243.91203125 487.75701172 -242.8240625 487.51402344 -241.703125 487.26367188 C-217.55397282 481.96919152 -217.55397282 481.96919152 -208.78125 484.6875 C-206.25887584 486.54609149 -205.92811399 488.39920259 -205.0625 491.375 C-203.48975811 496.00853958 -202.4801565 498.6105832 -198 501 C-195.68631909 501.78346867 -193.35832434 502.50512458 -191.0234375 503.22265625 C-188.33723934 504.25461269 -187.2493502 505.42321522 -186 508 C-179.22676426 529.87901329 -191.9833149 560.04443949 -202.02832031 579.22607422 C-209.00160014 591.95669011 -220.57915535 597.24749782 -233.75 602.125 C-245.54899674 606.51630319 -253.45113293 610.1971612 -259 622 C-262.15247874 630.09890947 -264.80549911 638.36973104 -266 647 C-266.165 647.74507812 -266.33 648.49015625 -266.5 649.2578125 C-266.87053249 651.91638314 -266.88177585 653.44589065 -266 656 C-263.38745861 658.85626456 -260.63681562 661.24065741 -257.6015625 663.640625 C-254.21089537 666.71564444 -253.28435892 669.06635931 -252.62890625 673.5234375 C-252.34024701 685.91880507 -255.85394267 697.78895997 -258.64697266 709.77685547 C-262.00905933 724.46192268 -263.90049275 739.10223722 -265.5 754.0625 C-267.60025365 773.69484064 -269.72670397 793.47137994 -277 812 C-276.20078125 812.65484375 -275.4015625 813.3096875 -274.578125 813.984375 C-262.42255652 824.04061672 -251.89584904 834.64052364 -242.35888672 847.21337891 C-226.64680453 867.87112548 -211.7014827 886.30588755 -188.125 898.3125 C-178.69135633 903.24696531 -170.62056992 908.57292112 -163 916 C-160.80725835 915.01704685 -159.22555132 914.25711407 -157.62695312 912.43481445 C-155.52257772 910.57895998 -154.54506736 910.68857301 -151.78125 910.85546875 C-150.94029785 910.89969971 -150.0993457 910.94393066 -149.23291016 910.98950195 C-148.3310498 911.05484131 -147.42918945 911.12018066 -146.5 911.1875 C-145.57106934 911.24574951 -144.64213867 911.30399902 -143.68505859 911.36401367 C-140.78820287 911.55577874 -137.89447709 911.77538622 -135 912 C-134.09797852 912.06348633 -133.19595703 912.12697266 -132.26660156 912.19238281 C-129.7169771 912.37672718 -127.17142307 912.58854666 -124.625 912.8125 C-123.85994141 912.87010498 -123.09488281 912.92770996 -122.30664062 912.98706055 C-114.92961587 913.72296614 -110.16645848 916.64219121 -105 922 C-104.34 922 -103.68 922 -103 922 C-102.69255859 921.15115234 -102.69255859 921.15115234 -102.37890625 920.28515625 C-102.10949219 919.55167969 -101.84007812 918.81820312 -101.5625 918.0625 C-101.29566406 917.33160156 -101.02882813 916.60070312 -100.75390625 915.84765625 C-100 914 -100 914 -99 913 C-96.74931459 912.54717286 -94.49184772 912.1655971 -92.2265625 911.79296875 C-89.32891316 910.7609989 -88.53371596 909.64292126 -87 907 C-85.58318617 903.08862507 -84.79692107 899.07781251 -84 895 C-83.74863281 893.84113281 -83.49726562 892.68226563 -83.23828125 891.48828125 C-82.40769569 886.1336552 -82.06926033 882.57110395 -84.890625 877.80859375 C-89.64603686 872.33111782 -94.33864347 868.75642339 -101 866 C-101.680625 865.443125 -102.36125 864.88625 -103.0625 864.3125 C-105.06089537 862.72522405 -105.06089537 862.72522405 -108.25 862.75 C-113.59147674 861.68170465 -116.55231279 859.1547182 -120 855 C-121.47558991 852.27275794 -122.67783293 849.52353723 -123.85546875 846.65625 C-126.25510194 841.08713543 -129.3399101 836.60058185 -135 834 C-135.66 834 -136.32 834 -137 834 C-141.89709759 821.00413808 -138.29127055 805.9935406 -136.22900391 792.66674805 C-135.7516845 789.57341663 -135.29453113 786.47758943 -134.83984375 783.38085938 C-130.16506891 752.1291586 -130.16506891 752.1291586 -125 745 C-122.1875 743.84765625 -122.1875 743.84765625 -119 743.0625 C-114.37802442 741.73754656 -114.37802442 741.73754656 -110.9375 738.5625 C-110.38105979 736.44802718 -109.86199803 734.32219442 -109.42578125 732.1796875 C-106.3445633 717.39696552 -99.31932782 707.47650116 -89.38671875 696.55126953 C-88.18896816 695.2113915 -87.04233316 693.82614345 -85.90625 692.43359375 C-69.79687671 672.80882756 -41.3984442 664.43187107 -17 662 C-14.26380529 661.85304543 -11.53277515 661.81391168 -8.79296875 661.796875 C-8.0342598 661.78981537 -7.27555084 661.78275574 -6.49385071 661.77548218 C25.26144381 661.54704288 25.26144381 661.54704288 39 665 C39.84369141 665.20931152 40.68738281 665.41862305 41.55664062 665.63427734 C58.6655004 669.99167079 79.88696394 675.44539772 92.57910156 688.6418457 C93.91336446 690.23032199 93.91336446 690.23032199 96 690 C96.268125 690.61875 96.53625 691.2375 96.8125 691.875 C97.95556848 694.2995233 97.95556848 694.2995233 101 696 C101.66 695.34 102.32 694.68 103 694 C107.1635269 693.18760451 109.70611695 694.14755391 113.1875 696.3125 C130.00923577 708.39253844 144.69468927 727.52866959 149 748 C149.47167914 752.3075404 149.48121498 755.27817752 147 759 C144.875 759.6875 144.875 759.6875 143 760 C143.48339844 761.26070312 143.48339844 761.26070312 143.9765625 762.546875 C146.56772633 771.28958046 145.82334042 780.67438615 142.36328125 789.046875 C139.14088876 793.66348315 134.08145237 794.69732618 128.875 796.0625 C125.03607121 797.072958 122.31199779 797.79200147 119 800 C118.64159778 802.32961443 118.31151288 804.66365343 118 807 C117.46375 807.969375 116.9275 808.93875 116.375 809.9375 C114.60427668 813.88138375 114.96409073 816.91721802 116 821 C117.27660379 823.87131554 118.8808669 826.47481569 120.5625 829.125 C121.47081528 830.61151309 122.37835547 832.09850005 123.28515625 833.5859375 C123.74035645 834.32295898 124.19555664 835.05998047 124.66455078 835.81933594 C126.67059413 839.0950177 128.59211074 842.41647974 130.5 845.75 C131.1290625 846.83796875 131.758125 847.9259375 132.40625 849.046875 C134.94808772 853.75675077 136.79130243 857.57392622 136 863 C132.78007605 867.36247761 129.00274032 869.11157114 124.0859375 871.0078125 C121.82727505 872.08215756 120.49695043 872.9942821 119 875 C119.165 876.155 119.33 877.31 119.5 878.5 C119.665 879.655 119.83 880.81 120 882 C119.25363281 882.67289063 119.25363281 882.67289063 118.4921875 883.359375 C116.6861162 884.96031853 116.6861162 884.96031853 117.1015625 887.671875 C117.27429687 888.68765625 117.44703125 889.7034375 117.625 890.75 C118.28644765 896.40980976 118.28644765 896.40980976 116.96484375 899.1328125 C116.05004927 900.26929812 115.11701792 901.39141079 114.1640625 902.49609375 C112.75449816 904.08288327 112.75449816 904.08288327 112.4375 906.9375 C112.96486108 909.80868808 113.57230932 911.11649232 115 913.5625 C118.26308269 919.63416457 118.17276991 926.88871671 116.3046875 933.4375 C113.62974748 939.37182071 109.46506495 942.80178397 103.6328125 945.63671875 C97.77875229 947.76210815 91.76047855 947.2038365 85.625 947 C83.28426151 946.92375445 80.94304931 946.86055788 78.6015625 946.8125 C77.05976318 946.76029297 77.05976318 946.76029297 75.48681641 946.70703125 C74.66616699 946.80371094 73.84551758 946.90039062 73 947 C70.73857742 949.74694525 70.73857742 949.74694525 71.125 952.5 C72.228459 955.65274001 73.18630624 956.22149017 76 958 C79.11940637 959.27564551 82.24610049 960.45560863 85.42382812 961.57421875 C91.01598308 963.67197798 94.57916242 966.54085803 97.625 971.8125 C99.21702671 975.50310738 100.63163903 979.22071731 102 983 C102.66 983 103.32 983 104 983 C104.8422551 981.68526034 105.64901654 980.34767499 106.4375 979 C109.2550638 975.16323242 109.2550638 975.16323242 112.35424805 974.48413086 C119.58436724 974.60169917 125.61560707 976.05159072 132.375 978.5625 C133.37289551 978.92093994 134.37079102 979.27937988 135.39892578 979.64868164 C153.22201166 986.22201166 153.22201166 986.22201166 158 991 C157.93039062 991.95003906 157.86078125 992.90007813 157.7890625 993.87890625 C157.60613491 997.98606611 157.75386583 1001.06823185 159 1005 C162.98700838 1008.18854914 167.31834359 1009.96192732 171.96337891 1012.00634766 C186.15811444 1018.93185396 196.35592154 1031.56541998 201.53515625 1046.21484375 C203.07921134 1050.94525374 203.9350133 1055.64318638 204.625 1060.5625 C204.81980957 1061.85752441 204.81980957 1061.85752441 205.01855469 1063.17871094 C205.71461489 1068.04039623 206.11247427 1072.79609723 206.20361328 1077.70410156 C206.32921786 1085.0508561 206.32921786 1085.0508561 209.75 1091.3125 C211.12209204 1092.5912332 212.54677294 1093.8142824 214 1095 C215.02673795 1095.88832048 216.05131788 1096.77913881 217.07421875 1097.671875 C219.23463475 1099.53972155 221.4149477 1101.37786222 223.62109375 1103.19140625 C230.14019278 1108.58759363 236.230504 1114.12037893 241.9375 1120.375 C247.56803602 1126.45392828 253.28836797 1132.43093672 259.125 1138.3125 C259.83519287 1139.03550293 260.54538574 1139.75850586 261.27709961 1140.50341797 C266.14726126 1145.39427293 266.14726126 1145.39427293 272 1149 C275.00469033 1148.90610343 276.05434734 1147.95423382 278.375 1146 C281.40686351 1143.69000875 283.2043074 1143.08075942 287 1143 C287.680625 1143.515625 288.36125 1144.03125 289.0625 1144.5625 C290.0215625 1145.2740625 290.0215625 1145.2740625 291 1146 C294.82108796 1145.09021715 295.78194445 1144.32708333 298 1141 C298.39013716 1139.0103005 298.73202649 1137.00980131 299 1135 C299.99 1134.67 300.98 1134.34 302 1134 C302 1134.66 302 1135.32 302 1136 C303.27875 1136.144375 304.5575 1136.28875 305.875 1136.4375 C312.50156536 1137.93648904 316.3339461 1142.31362946 321 1147 C322.05140554 1148.00727902 323.10486812 1149.01241436 324.16015625 1150.015625 C325.23300852 1151.05080213 326.30464107 1152.08724499 327.375 1153.125 C327.87491455 1153.60308105 328.3748291 1154.08116211 328.88989258 1154.57373047 C334.87369739 1160.50803225 338.63135454 1167.43608237 339 1176 C337.5625 1179.3125 337.5625 1179.3125 336 1182 C336.20435808 1184.78647557 336.20435808 1184.78647557 337 1187 C339.76264289 1187.59732819 342.16032769 1188 345 1188 C345 1189.98 345 1191.96 345 1194 C346.83284443 1195.12516085 346.83284443 1195.12516085 349 1196 C349.99 1195.67 350.98 1195.34 352 1195 C352.144375 1195.94875 352.28875 1196.8975 352.4375 1197.875 C352.82935399 1200.8934494 352.82935399 1200.8934494 354 1203 C355.65 1203 357.3 1203 359 1203 C359.144375 1203.78375 359.28875 1204.5675 359.4375 1205.375 C359.87798925 1207.96421018 359.87798925 1207.96421018 361 1210 C362.98 1210 364.96 1210 367 1210 C367.66 1211.32 368.32 1212.64 369 1214 C371.97 1209.545 371.97 1209.545 375 1205 C371.40664312 1201.33178152 367.83583646 1197.83056658 363.875 1194.5625 C360.45684217 1191.64391908 358.43192723 1188.67111012 356.2265625 1184.79296875 C354.30440522 1181.98319107 351.90546591 1180.71686622 349 1179 C347.37535787 1175.75071574 347.54407559 1173.60727394 348 1170 C349.92537579 1167.04854793 352.31509797 1164.66029708 354.8125 1162.1875 C355.77639648 1161.18686523 355.77639648 1161.18686523 356.75976562 1160.16601562 C363.63557028 1153.10495613 363.63557028 1153.10495613 367.4375 1152.8125 C369.75997867 1152.98243746 371.75930876 1153.40533672 374 1154 C374.54527344 1153.15115234 374.54527344 1153.15115234 375.1015625 1152.28515625 C379.22525999 1146.26878735 379.22525999 1146.26878735 383.0625 1144.9375 C386 1145 386 1145 388.30078125 1145.71484375 C392.13048455 1146.1194289 393.91408731 1144.66099226 397.125 1142.625 C401.62733812 1139.80682826 404.81295242 1137.84939266 410.1875 1137.9375 C411.445625 1137.958125 412.70375 1137.97875 414 1138 C415 1141 415 1141 413.875 1143.4375 C409.71357379 1149.12478248 404.31902558 1151.37416987 398 1154 C402.18680281 1159.05770941 406.58858245 1163.58023385 411.4375 1168 C413.96924718 1170.32184798 416.49222374 1172.65226694 419 1175 C419.66684814 1175.62390625 420.33369629 1176.2478125 421.02075195 1176.890625 C421.65843506 1177.50421875 422.29611816 1178.1178125 422.953125 1178.75 C423.8198584 1179.57757812 423.8198584 1179.57757812 424.70410156 1180.421875 C426 1182 426 1182 426.3125 1185 C424.55907055 1189.00783874 422.02204796 1191.87629294 419 1195 C420.38761278 1198.17072872 421.21140864 1199.16826402 424.0625 1201.4375 C427.34095912 1204.29743242 427.27902462 1204.98313719 428 1209 C432.42340308 1213.04053025 437.53374894 1215.4474834 442.84375 1218.12109375 C446.11180822 1220.0665591 448.43499863 1222.21008247 451 1225 C450.608125 1223.865625 450.21625 1222.73125 449.8125 1221.5625 C449.20459406 1219.70955592 448.60116044 1217.85514353 448 1216 C447.79117188 1215.37254883 447.58234375 1214.74509766 447.3671875 1214.09863281 C441.46276655 1196.20721932 441.46276655 1196.20721932 443 1187 C445 1185 445 1185 447.375 1184.8125 C450.81110325 1186.36692766 451.66983414 1188.38056574 453.0234375 1191.80859375 C456.21021292 1202.22297582 458.28762415 1213.13626821 459 1224 C459.62648438 1224.10957031 460.25296875 1224.21914062 460.8984375 1224.33203125 C461.71570312 1224.49058594 462.53296875 1224.64914062 463.375 1224.8125 C464.18710938 1224.96332031 464.99921875 1225.11414062 465.8359375 1225.26953125 C468 1226 468 1226 470 1229 C465.5 1234 461 1239 456.5 1244 C455.76652344 1244.81597656 455.03304687 1245.63195313 454.27734375 1246.47265625 C452.69017454 1248.23406016 451.09869047 1249.99158153 449.50390625 1251.74609375 C448.29541016 1253.07833984 448.29541016 1253.07833984 447.0625 1254.4375 C446.33160156 1255.24058594 445.60070313 1256.04367187 444.84765625 1256.87109375 C442.86672419 1259.06292965 442.86672419 1259.06292965 441 1262 C437.22792209 1262.6041629 435.54628165 1262.37202266 432.3671875 1260.20703125 C431.54476562 1259.41683594 430.72234375 1258.62664063 429.875 1257.8125 C428.63363281 1256.64654297 428.63363281 1256.64654297 427.3671875 1255.45703125 C425.07474366 1253.07758047 423.01619537 1250.61547924 421 1248 C416.79609368 1249.50139512 415.10889262 1252.17275043 413 1256 C413.33 1256.99 413.66 1257.98 414 1259 C415.91609045 1259.90762179 417.83289384 1260.81378019 419.75390625 1261.7109375 C423.0519844 1263.60374757 425.38916777 1266.165595 427.984375 1268.9140625 C430.54481787 1271.56382315 433.31126565 1273.90586789 436.140625 1276.26171875 C438.35255632 1278.32959572 440.15490997 1280.6038322 442 1283 C462.12662179 1255.00405041 479.52633013 1225.81826839 495 1195 C495.63929443 1193.73542969 495.63929443 1193.73542969 496.29150391 1192.4453125 C521.51975384 1142.22133106 538.03476534 1085.69740348 545 1030 C524.30984753 1034.05925055 503.68161788 1038.40318247 483.05267334 1042.76031494 C478.633625 1043.69338214 474.21425811 1044.62493815 469.79492188 1045.55664062 C461.19631109 1047.36965731 452.59804084 1049.18428236 444 1051 C444.61868958 1050.04733749 445.23737915 1049.09467499 445.87481689 1048.11314392 C446.69431666 1046.84624772 447.5137079 1045.57928131 448.33300781 1044.31225586 C448.73987823 1043.68638329 449.14674866 1043.06051071 449.56594849 1042.4156723 C452.6617933 1037.62099589 455.37510508 1032.75668782 457.75 1027.5625 C458.12213623 1026.7595752 458.49427246 1025.95665039 458.87768555 1025.12939453 C462.15877897 1017.90826728 464.83441534 1010.63992507 467 1003 C467.17869629 1002.37013184 467.35739258 1001.74026367 467.54150391 1001.09130859 C480.49544886 954.24881387 475.75115202 901.6655358 452.30859375 858.9296875 C449.76724448 854.4705767 446.8949007 850.23509855 444 846 C444.77110107 846.17426514 445.54220215 846.34853027 446.33666992 846.52807617 C467.68594552 851.33976457 489.07200366 855.97768433 510.47302628 860.55286026 C512.56606333 861.00076254 514.65884315 861.44984889 516.7515564 861.89926147 C520.70987573 862.7491023 524.66931052 863.59362593 528.62890625 864.4375 C529.83364594 864.69650589 531.03838562 864.95551178 532.27963257 865.22236633 C533.38561798 865.45707138 534.49160339 865.69177643 535.63110352 865.93359375 C536.59951675 866.14040771 537.56792999 866.34722168 538.56568909 866.56030273 C541.07975424 867.08887433 541.07975424 867.08887433 544 867 C543.43870321 857.73921982 541.77659842 848.75957097 539.9375 839.6875 C539.78316498 838.92267303 539.62882996 838.15784607 539.46981812 837.36984253 C522.08753872 751.76120261 484.21556455 669.74310991 419 589 C418.19030762 588.0416626 418.19030762 588.0416626 417.36425781 587.06396484 C405.84347159 573.46663569 393.63633754 560.56277931 381.0625 547.9375 C380.28181152 547.15213867 379.50112305 546.36677734 378.69677734 545.55761719 C374.51134168 541.38380029 370.24164966 537.37329099 365.76196289 533.5168457 C363.53061307 531.59591229 361.36048433 529.61151107 359.1875 527.625 C353.93819023 522.89423907 348.50376055 518.43002948 343 514 C341.86686303 513.07461592 340.73406551 512.14881607 339.6015625 511.22265625 C275.28920778 458.86971474 171.57482193 397 85 397 C87.61467676 410.27575302 90.30053999 423.53423133 93.11328125 436.76953125 C93.50626907 438.62056961 93.50626907 438.62056961 93.90719604 440.50900269 C94.98467844 445.57941354 96.06381221 450.64946115 97.14770508 455.71850586 C97.95231126 459.48476267 98.75192811 463.25205063 99.55078125 467.01953125 C99.92098137 468.74113213 99.92098137 468.74113213 100.29866028 470.49751282 C100.52277084 471.55770126 100.74688141 472.61788971 100.9777832 473.71020508 C101.17588089 474.63851639 101.37397858 475.5668277 101.57807922 476.52326965 C102 479 102 479 102 483 C101.20980469 482.45472656 100.41960938 481.90945313 99.60546875 481.34765625 C59.22849583 454.08785866 8.78722883 448.18789679 -38.5 456.625 C-60.82289958 461.02759545 -82.66922432 469.34418725 -101 483 C-99.57356573 472.68244621 -97.50967276 462.56758467 -95.3046875 452.39453125 C-94.94843478 450.73646723 -94.5925765 449.07831842 -94.23709106 447.42008972 C-93.30979052 443.09830198 -92.37837693 438.7774128 -91.44567871 434.45678711 C-89.94526482 427.50449498 -88.44969779 420.55116425 -86.95703506 413.59720421 C-86.43596971 411.17374958 -85.91218882 408.75089303 -85.38815308 406.32807922 C-85.07100864 404.85391294 -84.75395637 403.37972683 -84.43701172 401.90551758 C-84.01970291 399.97244499 -84.01970291 399.97244499 -83.59396362 398.00032043 C-82.93526736 395.18277053 -82.93526736 395.18277053 -83 393 C-144.2066548 393 -212.72342336 422.43745192 -266 449 Z M244.75 1270.0078125 C240.77639585 1272.26070414 236.28998102 1272.05134253 231.859375 1271.875 C220.57631636 1271.48424472 210.78099579 1273.89161946 200 1277 C198.26943359 1277.495 198.26943359 1277.495 196.50390625 1278 C194.32845663 1278.64183478 192.16232916 1279.31526243 190 1280 C188.94760837 1289.76922702 187.93571737 1299.53973441 187.03515625 1309.32421875 C186.79252962 1311.91080013 186.54889998 1314.49728509 186.30493164 1317.08374023 C186.14150768 1318.83894324 185.98175473 1320.59449143 185.82543945 1322.3503418 C185.59316688 1324.94687706 185.34669817 1327.54174499 185.09765625 1330.13671875 C185.0319191 1330.9107756 184.96618195 1331.68483246 184.89845276 1332.48234558 C184.2494014 1339.01609364 182.91164166 1344.80161209 178.5 1349.875 C174.94632418 1352.55584316 171.01982465 1352.89865645 166.68359375 1353.34765625 C163.18707168 1354.1976114 161.49528415 1355.41023004 159 1358 C156.18608818 1365.70853309 155.70849572 1374.48106688 155.125 1382.625 C155.06344727 1383.38248535 155.00189453 1384.1399707 154.93847656 1384.92041016 C154.68868407 1389.53124919 155.01906876 1392.40827661 158 1396 C159.87536527 1397.27335265 159.87536527 1397.27335265 161.9375 1398.1875 C167.17137086 1401.29331348 168.44707301 1405.3009087 170 1411 C172.72895077 1422.06331395 174.20858221 1432.68003821 174.3125 1444.0625 C174.34150391 1445.12533203 174.37050781 1446.18816406 174.40039062 1447.28320312 C174.45155212 1453.58393798 174.15417337 1457.18300862 170 1462 C167.71933712 1464.74739889 167.71933712 1464.74739889 168.20703125 1467.48828125 C168.40683594 1468.42027344 168.60664062 1469.35226562 168.8125 1470.3125 C169.01230469 1471.28445313 169.21210937 1472.25640625 169.41796875 1473.2578125 C169.61003906 1474.16273438 169.80210938 1475.06765625 170 1476 C170.33882656 1477.99907671 170.67544172 1479.99855726 171 1482 C224.67823392 1466.5130421 276.46381641 1437.3715878 321 1404 C321.58539551 1403.56236328 322.17079102 1403.12472656 322.77392578 1402.67382812 C350.87619686 1381.57449488 376.30201287 1357.93214249 401 1333 C398.13673177 1327.08672865 394.18601184 1323.17318535 389.21875 1318.984375 C385.9744682 1316.08279902 383.08531314 1312.85899523 380.17578125 1309.625 C378.12411235 1307.76921725 378.12411235 1307.76921725 375.54296875 1307.921875 C372.1078626 1309.37823337 370.41845939 1311.42342559 368 1314.25 C365.50301337 1317.13714079 363.07246941 1319.93130614 360.30078125 1322.55859375 C357.97550212 1325.0259952 357.09949065 1326.59653297 356.1875 1329.8125 C355.95417969 1330.60269531 355.72085937 1331.39289063 355.48046875 1332.20703125 C355.32191406 1332.79871094 355.16335938 1333.39039063 355 1334 C354.02160156 1334.12955078 354.02160156 1334.12955078 353.0234375 1334.26171875 C352.14945313 1334.40222656 351.27546875 1334.54273438 350.375 1334.6875 C349.51648437 1334.81511719 348.65796875 1334.94273438 347.7734375 1335.07421875 C341.75111049 1337.08448847 338.03201309 1341.89314397 334.3125 1346.8125 C333.89242676 1347.36655518 333.47235352 1347.92061035 333.03955078 1348.49145508 C329.18087897 1353.63658787 325.57358309 1358.94944171 321.96166992 1364.26904297 C318.89512169 1368.76361674 315.67417807 1373.05182014 312.21875 1377.2578125 C309.28146432 1380.88804938 306.45530837 1384.59858714 303.625 1388.3125 C303.06474121 1389.04597656 302.50448242 1389.77945312 301.92724609 1390.53515625 C299.36226011 1393.89468585 296.8031694 1397.25838578 294.2578125 1400.6328125 C281.22285507 1417.85142996 281.22285507 1417.85142996 275 1422 C269.45858847 1421.78989909 266.19620994 1420.21735795 261.75 1417 C261.19425293 1416.59918213 260.63850586 1416.19836426 260.06591797 1415.78540039 C235.53352231 1397.89442942 235.53352231 1397.89442942 233.375 1385.375 C233.63060865 1379.73030888 236.90974642 1375.35037592 239.89208984 1370.72753906 C241.04229664 1368.93404781 242.15860187 1367.12274348 243.26953125 1365.3046875 C249.14386985 1355.72861183 255.32395576 1346.36110954 261.61425781 1337.05419922 C262.85198027 1335.21942178 264.0795153 1333.37832131 265.3046875 1331.53515625 C273.29846292 1319.69089926 282.41675032 1308.59384692 292 1298 C288.32227585 1293.49478792 284.56340189 1289.63191713 280.125 1285.8828125 C277.84563863 1283.86323128 275.78359758 1281.70838852 273.6875 1279.5 C268.18602139 1273.96058016 261.6225755 1268.35046929 253.75 1266.8125 C249.87380727 1267.00630964 247.96645461 1267.9257325 244.75 1270.0078125 Z M251 1391 C255.45812917 1399.91625833 263.88183908 1405.67661579 272 1411 C274.31 1409.02 276.62 1407.04 279 1405 C275.01795695 1401.01795695 270.52537765 1398.8990704 265.5625 1396.3125 C264.13067383 1395.54583008 264.13067383 1395.54583008 262.66992188 1394.76367188 C261.28836914 1394.03954102 261.28836914 1394.03954102 259.87890625 1393.30078125 C259.0391626 1392.85903564 258.19941895 1392.41729004 257.33422852 1391.9621582 C254.80443338 1390.74593985 254.80443338 1390.74593985 251 1391 Z M576.375 1405.25 C574.80105469 1405.43369141 574.80105469 1405.43369141 573.1953125 1405.62109375 C571.68710938 1405.81638672 571.68710938 1405.81638672 570.1484375 1406.015625 C569.23239746 1406.13196289 568.31635742 1406.24830078 567.37255859 1406.36816406 C564.73639185 1407.07020147 563.70682037 1407.91616543 562 1410 C564.00424629 1414.39944875 566.92078051 1417.25210248 570.3125 1420.625 C570.88162109 1421.21023438 571.45074219 1421.79546875 572.03710938 1422.3984375 C575.14895747 1425.51385833 577.66130255 1427.74641762 582 1429 C584.60907192 1426.85938988 586.98350967 1424.7171806 589 1422 C588.73486085 1419.65793749 588.39387788 1417.32387947 588 1415 C589.34672636 1411.48096789 591.10805444 1408.25362265 593 1405 C587.26873686 1403.59922595 582.15516707 1404.48455708 576.375 1405.25 Z M557 1422 C558.65 1423.98 560.3 1425.96 562 1428 C562.66 1427.67 563.32 1427.34 564 1427 C562.37660195 1425.29115995 560.70680947 1423.62553283 559 1422 C558.34 1422 557.68 1422 557 1422 Z " transform="translate(950,0)" style="fill: #102F4C;"/><path d="M0 0 C2.82430527 2.2449606 3.35512418 3.88178365 4.34765625 7.31640625 C5.56950871 11.50561468 6.4414949 13.60612721 10.28515625 15.81640625 C12.49652833 16.61941835 12.49652833 16.61941835 14.78515625 17.19140625 C18.97015085 18.50610028 21.00903541 19.92803315 23.28515625 23.81640625 C30.05658479 44.8677181 17.72055929 74.36861874 8.34375 93.02734375 C0.77582976 107.35271649 -10.81388066 113.51594388 -25.58984375 119.00390625 C-27.777842 119.82248405 -29.96287411 120.6490439 -32.14453125 121.484375 C-33.09569824 121.83781982 -34.04686523 122.19126465 -35.02685547 122.55541992 C-37.98658507 123.94388526 -40.18957057 125.75984933 -42.71484375 127.81640625 C-43.37484375 127.81640625 -44.03484375 127.81640625 -44.71484375 127.81640625 C-45.38396478 129.14850958 -46.04998683 130.48216958 -46.71484375 131.81640625 C-47.09382812 132.57695313 -47.4728125 133.3375 -47.86328125 134.12109375 C-52.23380214 143.27970121 -55.17314694 152.78161185 -56.71484375 162.81640625 C-56.8746875 163.5434375 -57.03453125 164.27046875 -57.19921875 165.01953125 C-57.53811759 167.63104585 -57.50373698 169.27893525 -56.71484375 171.81640625 C-54.10982449 174.68619796 -51.35518012 177.05427982 -48.31640625 179.45703125 C-44.92573912 182.53205069 -43.99920267 184.88276556 -43.34375 189.33984375 C-43.05509076 201.73521132 -46.56878642 213.60536622 -49.36181641 225.59326172 C-52.72390308 240.27832893 -54.6153365 254.91864347 -56.21484375 269.87890625 C-58.3150974 289.51124689 -60.44154772 309.28778619 -67.71484375 327.81640625 C-67.08320312 328.30367187 -66.4515625 328.7909375 -65.80078125 329.29296875 C-53.31107987 339.19114708 -42.61839207 350.34841769 -33.04150391 363.06201172 C-17.63634714 383.43401329 -3.02531888 401.3214192 20.16015625 413.12890625 C29.59379992 418.06337156 37.66458633 423.38932737 45.28515625 430.81640625 C47.51072371 429.81873808 49.10961776 429.00474442 50.78515625 427.20703125 C52.72648119 425.40726125 53.67441954 425.47042328 56.28515625 425.56640625 C57.95192306 425.64771195 59.61858438 425.73119806 61.28515625 425.81640625 C62.19394531 425.77773438 63.10273437 425.7390625 64.0390625 425.69921875 C68.16594536 425.68773924 71.11794637 425.79594423 74.3046875 428.58203125 C75.61059844 430.24260011 76.8616629 431.94704257 78.0703125 433.6796875 C80.68825252 437.38728157 83.59708673 440.72985761 86.59765625 444.12890625 C87.72503042 445.4196373 88.85133186 446.71130609 89.9765625 448.00390625 C90.53102051 448.64070313 91.08547852 449.2775 91.65673828 449.93359375 C94.14365076 452.80901639 96.58956975 455.71834138 99.03515625 458.62890625 C103.01248922 463.35507353 107.08534972 467.9820448 111.23828125 472.5546875 C113.11025315 474.623145 114.95379015 476.71201539 116.78515625 478.81640625 C119.42205261 481.84395392 122.09532194 484.83577904 124.78515625 487.81640625 C129.58423417 493.13975318 134.32593575 498.50503964 138.96484375 503.96875 C144.55957364 510.54958804 150.24250737 517.01406523 156.12890625 523.3359375 C159.34485064 526.79009999 162.4903358 530.29076217 165.578125 533.859375 C167.62149056 536.20199775 169.70196484 538.50914047 171.78515625 540.81640625 C175.04906473 544.4331697 178.27306574 548.08030233 181.47265625 551.75390625 C183.55726789 554.12605054 185.66944269 556.4719669 187.78515625 558.81640625 C191.04906473 562.4331697 194.27306574 566.08030233 197.47265625 569.75390625 C199.55726789 572.12605054 201.66944269 574.4719669 203.78515625 576.81640625 C207.0521996 580.43664348 210.28036401 584.0862419 213.48046875 587.765625 C215.51473766 590.07729422 217.58737935 592.35172055 219.66015625 594.62890625 C222.71374492 598.00581607 225.6294483 601.44857757 228.47265625 605.00390625 C233.37519111 611.06960843 238.70773662 616.69805602 244.0546875 622.37109375 C246.99548204 625.49416547 249.84914802 628.67912717 252.6484375 631.9296875 C254.66389397 634.25299412 256.72364087 636.5338909 258.78515625 638.81640625 C262.04906473 642.4331697 265.27306574 646.08030233 268.47265625 649.75390625 C270.55726789 652.12605054 272.66944269 654.4719669 274.78515625 656.81640625 C278.04906473 660.4331697 281.27306574 664.08030233 284.47265625 667.75390625 C286.55726789 670.12605054 288.66944269 672.4719669 290.78515625 674.81640625 C295.58423417 680.13975318 300.32593575 685.50503964 304.96484375 690.96875 C310.55957364 697.54958804 316.24250737 704.01406523 322.12890625 710.3359375 C325.34485064 713.79009999 328.4903358 717.29076217 331.578125 720.859375 C333.62149056 723.20199775 335.70196484 725.50914047 337.78515625 727.81640625 C341.04906473 731.4331697 344.27306574 735.08030233 347.47265625 738.75390625 C349.55726789 741.12605054 351.66944269 743.4719669 353.78515625 745.81640625 C357.04906473 749.4331697 360.27306574 753.08030233 363.47265625 756.75390625 C365.55726789 759.12605054 367.66944269 761.4719669 369.78515625 763.81640625 C372.47499056 766.79703346 375.14825989 769.78885858 377.78515625 772.81640625 C380.40311658 775.82131683 383.0543059 778.79363381 385.72265625 781.75390625 C386.47160156 782.60984375 387.22054687 783.46578125 387.9921875 784.34765625 C390.20288459 786.83689915 390.20288459 786.83689915 392.671875 788.78515625 C395.24067138 791.04462112 396.69274672 792.76919971 398.28515625 795.81640625 C398.41897049 798.78656493 398.37098481 801.40450102 398.11328125 804.33984375 C398.05437714 805.17010574 397.99547302 806.00036774 397.93478394 806.85578918 C397.73929825 809.51145996 397.51496561 812.1635018 397.28515625 814.81640625 C397.21520447 815.6733609 397.14525269 816.53031555 397.07318115 817.41323853 C396.65056284 822.58047378 396.17701133 827.74097805 395.66552734 832.90014648 C395.40662392 835.53992178 395.16422653 838.18092533 394.921875 840.82226562 C394.7549073 842.5326501 394.58697481 844.24294073 394.41796875 845.953125 C394.34909454 846.72718185 394.28022034 847.50123871 394.20925903 848.29875183 C393.55371615 854.6198859 392.31820527 861.83781885 387.28515625 866.19140625 C383.45910283 869.21798582 379.6056015 869.79089933 374.8359375 870.296875 C371.79321729 870.91660209 370.43231733 871.56519772 368.28515625 873.81640625 C365.59193504 881.64650499 365.00443685 890.28266185 364.47265625 898.50390625 C364.41956299 899.26968994 364.36646973 900.03547363 364.31176758 900.82446289 C364.00448976 906.17357597 364.00448976 906.17357597 366.28515625 910.81640625 C368.22012422 912.19265736 370.22178128 913.25343687 372.3125 914.375 C379.6358741 919.7261387 380.95738043 932.34374129 382.53515625 940.69140625 C383.421113 947.19110715 383.5640945 953.70308329 383.66015625 960.25390625 C383.69931152 961.81890869 383.69931152 961.81890869 383.73925781 963.41552734 C383.75325758 969.60442454 383.33124815 973.07089698 379.28515625 977.81640625 C376.99822221 980.56022945 376.99822221 980.56022945 377.52734375 983.26953125 C377.73617187 984.1925 377.945 985.11546875 378.16015625 986.06640625 C379.12807152 990.40364682 379.3847122 994.36957383 379.28515625 998.81640625 C345.27851466 1010.57751113 310.917353 1018.67343401 275.28515625 1023.81640625 C274.33995117 1023.95675293 273.39474609 1024.09709961 272.42089844 1024.24169922 C218.95234114 1032.07108955 163.65963122 1030.58236759 110.28515625 1022.81640625 C109.55896088 1022.71175049 108.8327655 1022.60709473 108.08456421 1022.49926758 C96.08161576 1020.75190325 84.28213122 1018.45118149 72.47265625 1015.69140625 C71.64240936 1015.4993158 70.81216248 1015.30722534 69.95675659 1015.10931396 C51.15313228 1010.74253281 32.29138227 1005.84214843 14.28515625 998.81640625 C15.3226004 993.62918552 16.61064843 988.79376831 18.41015625 983.81640625 C20.12386801 978.75258126 21.3740477 974.14457413 20.28515625 968.81640625 C18.47136633 965.46888067 18.47136633 965.46888067 16.28515625 962.81640625 C12.96617862 952.85947336 15.97019404 941.4211978 18.05615234 931.43139648 C18.53604279 929.1246448 18.9919416 926.8140469 19.4453125 924.50195312 C23.42421526 904.67734724 23.42421526 904.67734724 28.66015625 899.44140625 C30.59234755 898.24528783 32.53079157 897.05925537 34.47265625 895.87890625 C37.65496581 893.54521258 38.43881699 892.6249329 39.28515625 888.81640625 C39.88381877 882.73000397 38.90695596 877.45131258 37.47265625 871.56640625 C37.30749512 870.8808667 37.14233398 870.19532715 36.97216797 869.48901367 C35.93824488 865.50359518 34.68833909 862.17203163 32.28515625 858.81640625 C29.75895149 857.55330387 28.16446677 857.8201662 25.34765625 857.94140625 C16.60640302 857.9986134 6.76638992 856.11205393 0.28515625 849.81640625 C-12.38797301 832.48845464 -13.36893966 803.83968565 -17.28495789 783.22314453 C-18.23732009 778.23209554 -19.24141061 773.25763968 -20.3046875 768.2890625 C-23.76006124 751.81069947 -24.59445914 735.66722274 -24.69659424 718.90112305 C-24.72158816 716.04596424 -24.77574686 713.19159986 -24.82914734 710.33685303 C-24.87893646 707.5083196 -24.9129434 704.67976816 -24.94198608 701.85095215 C-24.9642167 699.87221927 -24.99721111 697.8936165 -25.03051758 695.91503906 C-25.07985937 681.40661637 -25.07985937 681.40661637 -20.31396484 676.32177734 C-18.69528909 674.93299615 -17.03468742 673.71146642 -15.27734375 672.50390625 C-14.70435547 672.08818359 -14.13136719 671.67246094 -13.54101562 671.24414062 C-11.94260518 670.0871784 -10.32916304 668.95106513 -8.71484375 667.81640625 C-7.96074219 667.22472656 -7.20664062 666.63304687 -6.4296875 666.0234375 C-4.71484375 664.81640625 -4.71484375 664.81640625 -2.71484375 664.81640625 C-3.13082357 659.14001493 -5.32565971 656.07534552 -8.71484375 651.75390625 C-16.98681492 640.97636701 -24.51395927 629.69234098 -32.02734375 618.37890625 C-32.79467547 617.22637124 -33.56217683 616.07394914 -34.32983398 614.92163086 C-38.12005464 609.23054453 -41.90293464 603.53466064 -45.67671204 597.83265686 C-47.44564023 595.16105789 -49.21733772 592.49130132 -50.98934937 589.82174683 C-51.83301182 588.54914683 -52.67536745 587.2756793 -53.51626587 586.00125122 C-58.98011236 577.72104586 -64.66539471 569.68608067 -70.71484375 561.81640625 C-71.33302979 561.00937256 -71.95121582 560.20233887 -72.58813477 559.37084961 C-74.28948694 557.15921034 -75.99960383 554.95478788 -77.71484375 552.75390625 C-78.61964478 551.59205811 -78.61964478 551.59205811 -79.54272461 550.40673828 C-84.17917935 544.46924707 -88.91833661 538.62524153 -93.71484375 532.81640625 C-100.41168203 524.64031974 -107.05821437 516.4298749 -113.55688477 508.09521484 C-116.45348843 504.39043843 -119.40856836 500.74038258 -122.39819336 497.11035156 C-130.20881764 487.61072221 -137.53540182 477.79951332 -144.71484375 467.81640625 C-145.29911133 467.00655273 -145.88337891 466.19669922 -146.48535156 465.36230469 C-165.8333175 438.45036311 -184.07694632 409.77099968 -193.71484375 377.81640625 C-193.94913086 377.06649414 -194.18341797 376.31658203 -194.42480469 375.54394531 C-212.02375985 316.94177812 -182.72817959 244.00740757 -161.21484375 189.87890625 C-160.86986847 189.0049823 -160.52489319 188.13105835 -160.16946411 187.23065186 C-159.18470651 184.74573523 -158.18688439 182.26654621 -157.18359375 179.7890625 C-156.89234116 179.05423141 -156.60108856 178.31940033 -156.30101013 177.56230164 C-154.62686991 173.48809465 -153.04298019 169.81633927 -149.71484375 166.81640625 C-145.96484375 166.50390625 -145.96484375 166.50390625 -142.71484375 166.81640625 C-137.27827065 154.89796625 -132.63811532 142.79040517 -128.27734375 130.44140625 C-127.78619583 129.05562378 -127.78619583 129.05562378 -127.28512573 127.6418457 C-119.46663926 105.55323456 -112.55909137 83.54909242 -107.59008789 60.63476562 C-103.64733427 42.75071497 -97.39041879 27.20102787 -81.703125 16.82421875 C-68.1573507 8.84150632 -51.898913 6.17770583 -36.71484375 2.81640625 C-35.626875 2.57341797 -34.53890625 2.33042969 -33.41796875 2.08007812 C-8.00733938 -3.49096954 -8.00733938 -3.49096954 0 0 Z " transform="translate(741.71484375,484.18359375)" style="fill: #8D1B1B;"/><path d="M0 0 C2.96591615 2.96591615 3.17452028 6.60982674 3.98583984 10.59716797 C4.17586452 11.50027081 4.36588921 12.40337364 4.56167221 13.33384323 C5.2018722 16.38518406 5.8312679 19.43865763 6.4609375 22.4921875 C6.91831263 24.68173692 7.37640993 26.87113558 7.83517456 29.06039429 C8.8297537 33.81319925 9.81973735 38.56693042 10.80627441 43.32141113 C12.39265987 50.96558745 13.98959419 58.60753426 15.58886719 66.24902344 C15.86416456 67.56454905 16.13945853 68.88007539 16.41474915 70.19560242 C16.83320261 72.19524794 17.25166618 74.19489134 17.67017746 76.19452477 C18.528473 80.29576195 19.38593638 84.39717214 20.24276352 88.49871635 C26.40577422 118.00006795 32.65381687 147.48321863 38.91512197 176.96384096 C40.39791518 183.94571969 41.87922362 190.92791323 43.3605386 197.91010571 C48.66885031 222.92986411 53.98499851 247.94793204 59.32291031 272.96139526 C60.0336981 276.29249076 60.74418386 279.62365053 61.45455933 282.95483398 C61.91143512 285.09716858 62.36831374 287.23950257 62.82519531 289.38183594 C63.15647902 290.93530102 63.15647902 290.93530102 63.49445534 292.52014923 C64.75470047 298.42838582 66.01748126 304.33607301 67.28221607 310.24335003 C70.73148454 326.36133407 74.14834991 342.47306347 77.19390869 358.67320251 C79.47734618 370.71390698 82.14184226 382.67193657 84.79119873 394.63632202 C86.17901449 400.9043433 87.5537626 407.17523908 88.92993164 413.44582558 C89.39292356 415.5551755 89.85623096 417.66445594 90.31958008 419.77372742 C92.98033829 431.88984642 95.6217499 444.01004169 98.22085571 456.13955688 C98.65398361 458.15768837 99.08899589 460.17541643 99.52597046 462.19271851 C100.12382795 464.95426728 100.71519609 467.71712388 101.3046875 470.48046875 C101.47896774 471.27948608 101.65324799 472.07850342 101.83280945 472.9017334 C102.62564276 476.65543073 103.20688718 480.15828626 103 484 C102.20916016 483.43345703 102.20916016 483.43345703 101.40234375 482.85546875 C60.66009145 455.28503811 9.1577098 449.12179467 -38.5 457.625 C-61.5693475 462.17481235 -82.25316281 471.40892525 -102 484 C-101.27680244 475.02527893 -99.27965116 466.32027397 -97.39453125 457.53515625 C-97.02887272 455.81675349 -96.66353796 454.09828181 -96.29850769 452.37974548 C-95.53203602 448.77577316 -94.76264208 445.17244172 -93.9909668 441.56958008 C-93.01949966 437.03348931 -92.05371604 432.49621369 -91.08991146 427.95848942 C-87.29101515 410.07908943 -83.44495525 392.21680983 -79.26513672 374.421875 C-77.89878356 368.60452945 -76.60056627 362.77261218 -75.3125 356.9375 C-75.12338547 356.08860703 -74.93427094 355.23971405 -74.73942566 354.36509705 C-73.62014341 349.22634949 -72.667114 344.08019998 -71.79345703 338.89404297 C-69.70276193 326.84447734 -67.0982051 314.89801253 -64.55743885 302.93713212 C-63.82066211 299.46558154 -63.08721793 295.99332667 -62.35333252 292.52116394 C-60.92357721 285.75923336 -59.49080239 278.99794609 -58.05699337 272.23687404 C-56.38183886 264.33707347 -54.70997363 256.4365778 -53.03818834 248.53606367 C-49.0401015 229.64278806 -45.03582837 210.75082549 -41.03024292 191.85913849 C-40.01685499 187.0796028 -39.00364416 182.30002959 -37.99047852 177.52044678 C-32.60286973 152.10470729 -27.21457369 126.68911326 -21.81982172 101.27488887 C-21.40445457 99.31811996 -20.98911011 97.36134624 -20.57376575 95.40457249 C-19.24339508 89.13704207 -17.91276832 82.86956622 -16.5816803 76.60218811 C-13.97712408 64.33592232 -11.37994908 52.06814581 -8.79443359 39.79785156 C-8.27864272 37.35193418 -7.76282996 34.90602141 -7.24699402 32.46011353 C-6.27819348 27.8662589 -5.31165009 23.27193727 -4.34638977 18.67733765 C-3.91550221 16.63334352 -3.48453279 14.58936666 -3.0534668 12.54541016 C-2.85874723 11.61538807 -2.66402767 10.68536598 -2.46340752 9.72716141 C-2.28407236 8.87864986 -2.10473721 8.03013832 -1.91996765 7.15591431 C-1.76541957 6.42090509 -1.61087149 5.68589588 -1.45164013 4.92861366 C-1 3 -1 3 0 0 Z " transform="translate(950,0)" style="fill: #8D1B1B;"/><path d="M0 0 C0.99 0.495 0.99 0.495 2 1 C2.62561003 2.93909458 3.17479174 4.90304515 3.6875 6.875 C8.28623506 22.34500949 19.4222987 34.59118912 33 43 C39.13318529 46.28832445 45.19292638 48.58721114 52 50 C52 50.66 52 51.32 52 52 C50.40893555 53.2265625 50.40893555 53.2265625 48.13671875 54.625 C47.28287598 55.15770508 46.4290332 55.69041016 45.54931641 56.23925781 C44.60491699 56.82030273 43.66051758 57.40134766 42.6875 58 C33.72604548 63.59924351 24.89545673 69.35899167 16.125 75.25 C8.60229016 80.29522604 1.06355834 85.28883021 -6.65478516 90.03100586 C-13.6053841 94.32582399 -20.42153545 98.82730737 -27.25 103.3125 C-28.19874496 103.93561569 -28.19874496 103.93561569 -29.16665649 104.57131958 C-31.6861121 106.22626281 -34.20544539 107.88139187 -36.72450256 109.53694153 C-41.9935718 112.99878903 -47.27446798 116.44218366 -52.5625 119.875 C-53.34439697 120.38272949 -54.12629395 120.89045898 -54.93188477 121.41357422 C-57.28764291 122.9428152 -59.64377902 124.47147225 -62 126 C-65.56297072 128.31177571 -69.12536241 130.62444081 -72.6875 132.9375 C-73.48937744 133.45747559 -74.29125488 133.97745117 -75.11743164 134.51318359 C-75.88692139 135.01285645 -76.65641113 135.5125293 -77.44921875 136.02734375 C-78.1973584 136.51058105 -78.94549805 136.99381836 -79.71630859 137.49169922 C-81.31992925 138.55083632 -82.90487395 139.63853504 -84.47509766 140.74658203 C-85.27351074 141.30587402 -86.07192383 141.86516602 -86.89453125 142.44140625 C-87.6110083 142.95517822 -88.32748535 143.4689502 -89.06567383 143.99829102 C-90.02316528 144.49413696 -90.02316528 144.49413696 -91 145 C-91.99 144.67 -92.98 144.34 -94 144 C-93.55309814 143.31711914 -93.10619629 142.63423828 -92.64575195 141.93066406 C-83.59664141 128.1016125 -74.55959116 114.26502598 -65.56054688 100.40332031 C-62.87526952 96.26785875 -60.18748081 92.13402981 -57.5 88 C-56.41665523 86.33334077 -55.33332188 84.66667411 -54.25 83 C-52.08333333 79.66666667 -49.91666667 76.33333333 -47.75 73 C-47.21391113 72.1752417 -46.67782227 71.3504834 -46.12548828 70.50073242 C-45.04055022 68.83160948 -43.95558923 67.16250144 -42.87060547 65.4934082 C-40.18663762 61.36444358 -37.50304969 57.2352331 -34.8203125 53.10546875 C-31.54850136 48.06925418 -28.27471252 43.0343284 -25 38 C-24.38302246 37.05125 -23.76604492 36.1025 -23.13037109 35.125 C-15.48548607 23.37255981 -7.8151959 11.64004471 0 0 Z " transform="translate(648,1193)" style="fill: #8E1B1B;"/><path d="M0 0 C1 3 1 3 0.21826172 4.67553711 C-0.20696777 5.2866333 -0.63219727 5.89772949 -1.0703125 6.52734375 C-1.54766846 7.22625732 -2.02502441 7.9251709 -2.5168457 8.64526367 C-3.04753662 9.40170166 -3.57822754 10.15813965 -4.125 10.9375 C-5.24731187 12.57729195 -6.368363 14.21794736 -7.48828125 15.859375 C-8.07174316 16.70951172 -8.65520508 17.55964844 -9.25634766 18.43554688 C-12.00528005 22.47850205 -14.65930913 26.58133219 -17.3125 30.6875 C-18.40212088 32.36863406 -19.49196917 34.04962074 -20.58203125 35.73046875 C-21.41468506 37.0151001 -21.41468506 37.0151001 -22.26416016 38.32568359 C-25.33443427 43.05589212 -28.41784515 47.77752794 -31.5 52.5 C-37.81305736 62.17587664 -44.11350323 71.85987897 -50.40722656 81.54833984 C-53.10404754 85.69939383 -55.80209214 89.84965238 -58.5 94 C-59.58333905 95.66666295 -60.66667239 97.33332961 -61.75 99 C-68.25 109 -68.25 109 -69.87792969 111.50439453 C-70.95163495 113.15632336 -72.02520464 114.80834032 -73.09863281 116.46044922 C-75.95311923 120.85337003 -78.81055018 125.24434224 -81.671875 129.6328125 C-82.27064453 130.55191406 -82.86941406 131.47101563 -83.48632812 132.41796875 C-84.64041749 134.18936174 -85.79533281 135.96021695 -86.95117188 137.73046875 C-87.46744141 138.52324219 -87.98371094 139.31601562 -88.515625 140.1328125 C-88.97227539 140.83293457 -89.42892578 141.53305664 -89.89941406 142.25439453 C-91.04495051 144.00762737 -91.04495051 144.00762737 -92 146 C-92.66 146 -93.32 146 -94 146 C-94.27972656 145.04480469 -94.55945312 144.08960938 -94.84765625 143.10546875 C-97.46270227 134.53114588 -100.56688087 127.24415884 -106 120 C-106.58394531 119.22140625 -107.16789062 118.4428125 -107.76953125 117.640625 C-116.70214095 106.73343842 -130.06028997 98.4242974 -144 96 C-142.57069921 91.71209764 -139.36538914 90.40371438 -135.6875 88.125 C-134.12468678 87.1359114 -132.56219985 86.1463071 -131 85.15625 C-130.17886719 84.63933594 -129.35773438 84.12242187 -128.51171875 83.58984375 C-124.37845934 80.97361268 -120.28463383 78.29730667 -116.1875 75.625 C-114.4936361 74.52321221 -112.79962447 73.42165151 -111.10546875 72.3203125 C-110.26161621 71.77149414 -109.41776367 71.22267578 -108.54833984 70.65722656 C-104.36604136 67.9374103 -100.18297759 65.21877165 -96 62.5 C-95.17306641 61.96246094 -94.34613281 61.42492187 -93.49414062 60.87109375 C-89.36493917 58.18695189 -85.23547915 55.50320952 -81.10546875 52.8203125 C-72.2315886 47.05511648 -63.36274502 41.28230152 -54.5 35.5 C-44.00781834 28.65460866 -33.50578201 21.82449427 -23 15 C-19.31235013 12.60439725 -15.62488213 10.20851483 -11.9375 7.8125 C-11.08583252 7.25933105 -10.23416504 6.70616211 -9.35668945 6.13623047 C-8.56738037 5.62334473 -7.77807129 5.11045898 -6.96484375 4.58203125 C-6.2699585 4.13061768 -5.57507324 3.6792041 -4.85913086 3.21411133 C-3.23316021 2.15226601 -1.61582711 1.07721807 0 0 Z " transform="translate(1325,568)" style="fill: #8E1B1B;"/></svg>